HIERARCHY
ROOT root
{
	OFFSET	0	13.1	24.9
	CHANNELS 6  Xposition Yposition Zposition Xrotation Yrotation Zrotation
	JOINT spine_1
	{
		OFFSET	0	9.99999	0
		CHANNELS 3  Xrotation Yrotation Zrotation
		JOINT spine_2
		{
			OFFSET	0	112	-10
			CHANNELS 3  Xrotation Yrotation Zrotation
			JOINT spine_3
			{
				OFFSET	0	206.5	19.3
				CHANNELS 3  Xrotation Yrotation Zrotation
				JOINT spine_4
				{
					OFFSET	0	110.4	14.6
					CHANNELS 3  Xrotation Yrotation Zrotation
					JOINT neck_1
					{
						OFFSET	0	71.8	-50.3
						CHANNELS 3  Xrotation Yrotation Zrotation
						JOINT neck_2
						{
							OFFSET	0	86.2	-25.8
							CHANNELS 3  Xrotation Yrotation Zrotation
							JOINT head_ee
							{
								OFFSET	0	179.8	-8.7
								CHANNELS 3  Xrotation Yrotation Zrotation
								End Site
								{
									OFFSET	1	0	0
								}
							}
						}
					}
					JOINT left_clavicle
					{
						OFFSET	-43.2	22.4	-70.8
						CHANNELS 3  Xrotation Yrotation Zrotation
						JOINT left_shoulder
						{
							OFFSET	-93.9	-5.79999	48.7
							CHANNELS 3  Xrotation Yrotation Zrotation
							JOINT left_elbow
							{
								OFFSET	-291.4	-30.8	15.2
								CHANNELS 3  Xrotation Yrotation Zrotation
								JOINT left_lowarm_twist
								{
									OFFSET	-110.7	-3.89999	13.6
									CHANNELS 3  Xrotation Yrotation Zrotation
									JOINT left_hand
									{
										OFFSET	-110.7	-3.89999	13.6
										CHANNELS 3  Xrotation Yrotation Zrotation
										JOINT left_ee
										{
											OFFSET	-80.8	-5.10001	12.1
											CHANNELS 3  Xrotation Yrotation Zrotation
											End Site
											{
												OFFSET	1	0	0
											}
										}
									}
								}
							}
						}
					}
					JOINT right_clavicle
					{
						OFFSET	43.2	22.4	-70.8
						CHANNELS 3  Xrotation Yrotation Zrotation
						JOINT right_shoulder
						{
							OFFSET	93.9	-5.79999	48.7
							CHANNELS 3  Xrotation Yrotation Zrotation
							JOINT right_elbow
							{
								OFFSET	291.4	-30.8	15.2
								CHANNELS 3  Xrotation Yrotation Zrotation
								JOINT right_lowarm_twist
								{
									OFFSET	110.7	-3.89999	13.6
									CHANNELS 3  Xrotation Yrotation Zrotation
									JOINT right_hand
									{
										OFFSET	110.7	-3.89999	13.6
										CHANNELS 3  Xrotation Yrotation Zrotation
										JOINT right_ee
										{
											OFFSET	80.8	-5.10001	12.1
											CHANNELS 3  Xrotation Yrotation Zrotation
											End Site
											{
												OFFSET	1	0	0
											}
										}
									}
								}
							}
						}
					}
				}
			}
		}
	}
	JOINT left_hip
	{
		OFFSET	-82.8	-127.5	0.300001
		CHANNELS 3  Xrotation Yrotation Zrotation
		JOINT left_knee
		{
			OFFSET	-28.2	-396.7	2.2
			CHANNELS 3  Xrotation Yrotation Zrotation
			JOINT left_ankle
			{
				OFFSET	-11.7	-411.3	35.4
				CHANNELS 3  Xrotation Yrotation Zrotation
				JOINT left_toes
				{
					OFFSET	0	-60	-88.6
					CHANNELS 3  Xrotation Yrotation Zrotation
					JOINT left_foot_ee
					{
						OFFSET	-22.5	-16.5	-42.2
						CHANNELS 3  Xrotation Yrotation Zrotation
						End Site
						{
							OFFSET	1	0	0
						}
					}
				}
			}
		}
	}
	JOINT right_hip
	{
		OFFSET	82.8	-127.5	0.300001
		CHANNELS 3  Xrotation Yrotation Zrotation
		JOINT right_knee
		{
			OFFSET	28.2	-396.7	2.2
			CHANNELS 3  Xrotation Yrotation Zrotation
			JOINT right_ankle
			{
				OFFSET	11.7	-411.3	35.4
				CHANNELS 3  Xrotation Yrotation Zrotation
				JOINT right_toes
				{
					OFFSET	0	-60	-88.6
					CHANNELS 3  Xrotation Yrotation Zrotation
					JOINT right_foot_ee
					{
						OFFSET	22.5	-16.5	-42.2
						CHANNELS 3  Xrotation Yrotation Zrotation
						End Site
						{
							OFFSET	1	0	0
						}
					}
				}
			}
		}
	}
}
MOTION
Frames: 8
Frame Time: 0.02
1012.68 743.64 -557.167 171.181 -89.0032 176.013 -0.438581 -0.294188 -1.05831 -0.437986 -0.226252 -1.07489 -0.433268 0.0130107 -1.09836 -0.434916 -0.160608 -1.08663 -16.2685 3.10627 3.01588 -16.2599 4.23087 3.92533 -0.0 0.0 -0.0 3.748 11.9737 7.71487 -15.1252 -17.1614 65.5752 0.695317 -19.0058 0.116394 6.88462 0.191198 -0.858113 -2.40381 26.1396 -3.08072 -0.0 0.0 -0.0 11.1721 7.35924 -22.4036 -1.93894 21.166 -56.4928 0.709452 19.3636 -0.121039 49.939 0.964447 6.10685 -0.460671 -9.46918 -0.965092 0.0 0.0 0.0 8.95095 -5.27829 -9.41645 -28.2039 0.108659 4.28337 31.1612 -30.5229 -4.98339 -18.3432 0.0 0.0 -0.0 0.0 -0.0 10.3482 20.7951 -13.7386 -17.5136 -0.316949 -2.65849 21.9331 0.0766447 2.98979 1.55858 -0.0 -0.0 0.0 0.0 0.0 
1033.49 745.555 -554.213 -36.0595 -89.3393 -31.5212 -0.211853 -0.297595 -1.21267 -0.211062 -0.219833 -1.22914 -0.205801 0.047886 -1.24773 -0.207942 -0.149754 -1.23963 -16.5242 2.38523 1.92592 -16.5257 3.48252 2.6572 -0.0 0.0 -0.0 3.63602 12.3169 7.53544 -15.7561 -17.2224 65.6784 0.613686 -16.9095 0.0912213 6.07089 0.173995 -0.75559 -2.72472 28.3063 -3.70768 -0.0 0.0 -0.0 11.2012 7.01787 -22.462 -1.70284 21.0807 -55.3154 0.819326 22.0906 -0.159936 50.0613 0.973199 6.11983 -0.156591 -5.48608 -1.26632 0.0 0.0 0.0 9.7575 -3.14607 -8.1008 -25.8936 0.179323 3.93587 30.1484 -30.6427 -4.86518 -18.4481 0.0 0.0 -0.0 0.0 -0.0 9.44982 18.8191 -13.4928 -18.572 -0.309899 -2.82072 24.0011 -0.93819 3.23065 -0.10017 0.0 0.0 0.0 0.0 0.0 
1046.39 743.385 -553.775 -25.209 -87.244 -20.6101 0.00890555 -0.336646 -1.28914 0.00979425 -0.25394 -1.30794 0.0161589 0.0262371 -1.33211 0.01373 -0.184455 -1.31954 -15.4485 2.24568 1.78385 -15.4488 3.25305 2.44069 -0.0 0.0 -0.0 3.51678 12.4708 7.33964 -16.237 -17.2992 65.5821 0.560595 -15.5203 0.0763952 6.02375 0.172954 -0.749659 -2.61851 28.6804 -2.93533 -0.0 0.0 -0.0 11.1999 7.10108 -22.4608 -1.26425 20.7877 -53.9184 0.889813 23.787 -0.187411 50.2831 0.98915 6.14333 0.0508743 -1.69839 -1.05226 0.0 0.0 0.0 10.0934 -1.32489 -7.97651 -24.1394 0.223581 3.67032 30.8123 -30.8014 -4.95817 -18.2524 0.0 0.0 -0.0 0.0 -0.0 8.18221 17.7017 -12.6167 -16.4367 -0.321046 -2.49331 24.9959 -0.244521 3.35109 -1.28148 0.0 0.0 0.0 0.0 0.0 
1060.14 739.379 -557.549 -25.2518 -85.8953 -21.2255 0.265542 -0.291758 -0.988908 0.266057 -0.228243 -1.00547 0.27037 -0.0166992 -1.03091 0.268932 -0.179294 -1.01534 -15.5038 1.73954 0.125929 -15.5134 3.25689 0.70883 -0.0 0.0 -0.0 3.34173 11.554 7.01259 -17.6449 -17.1953 65.6949 0.525681 -14.5962 0.0673243 6.51823 0.183633 -0.811922 -2.34704 28.6696 -1.48001 -0.0 0.0 -0.0 11.3389 7.46508 -22.7734 -0.448495 20.6601 -52.5584 0.947048 25.1327 -0.211111 49.8254 0.956337 6.09477 0.129815 0.656007 -0.591587 0.0 0.0 0.0 11.5364 -0.818531 -8.21944 -23.5065 0.237549 3.5742 29.5585 -30.4498 -4.77861 -17.8825 0.0 0.0 -0.0 0.0 -0.0 8.79543 14.4347 -12.168 -20.4556 -0.289944 -3.10904 25.7399 -1.04028 3.43194 -1.99244 0.0 0.0 0.0 0.0 0.0 
1072.9 736.746 -563.566 -33.9027 -84.7783 -31.1428 0.478272 -0.108877 -0.473478 0.478393 -0.0785284 -0.479447 0.479107 0.0199351 -0.485426 0.478783 -0.0569781 -0.482482 -13.7135 1.19614 0.753523 -13.7142 1.8159 1.08616 -0.0 0.0 -0.0 3.15554 11.9767 6.71398 -18.9095 -17.0963 65.4047 0.495602 -13.7939 0.059948 6.16999 0.176168 -0.768063 -2.14723 28.5674 -0.456004 -0.0 0.0 -0.0 11.4074 7.73285 -22.9293 0.098626 20.6597 -51.4991 1.09181 28.406 -0.27634 49.2983 0.919035 6.03853 0.403837 3.99245 -1.02821 0.0 0.0 0.0 16.744 -0.757723 -10.7687 -20.9993 0.282423 3.19211 24.5714 -27.3343 -3.95484 -19.8458 0.0 0.0 -0.0 0.0 -0.0 6.12644 12.7276 -10.8476 -17.6286 -0.316328 -2.67612 29.7651 -0.386339 3.88249 -2.93336 0.0 0.0 0.0 0.0 0.0 
1108.19 727.296 -556.12 48.1489 -87.9971 51.7215 -0.474558 0.251304 -0.599221 -0.474405 0.288924 -0.582016 -0.477354 0.409032 -0.50489 -0.477563 0.324162 -0.563151 -15.1554 1.67723 1.10583 -15.1575 2.55469 1.60261 -0.0 0.0 -0.0 2.59737 13.11 5.83382 -20.0104 -15.583 65.1634 0.488477 -13.603 0.0582605 7.38412 0.201036 -0.921161 -1.73841 28.7981 1.85187 -0.0 0.0 -0.0 11.1651 9.20792 -22.4045 0.727158 21.7338 -51.8369 1.27011 32.1757 -0.366322 49.044 0.901221 6.01127 0.648324 5.78961 -1.91849 0.0 0.0 0.0 27.6073 -2.30454 -9.33164 -21.7456 0.270814 3.30605 14.549 -25.9807 -2.43857 -22.0165 0.0 0.0 -0.0 0.0 -0.0 -2.26332 13.4444 -12.0585 -15.4945 -0.322083 -2.34876 31.8905 1.93422 4.12532 -3.96333 0.0 0.0 0.0 0.0 0.0 
1117.37 725.763 -560.342 14.6341 -88.5148 17.7533 -0.453501 0.136083 -0.485939 -0.453385 0.166728 -0.476295 -0.454753 0.266526 -0.428509 -0.454956 0.195507 -0.465223 -12.8686 1.94825 0.674292 -12.874 3.27963 1.21926 -0.0 0.0 -0.0 3.36385 13.7664 7.12654 -20.362 -14.7878 63.9939 0.409697 -11.4727 0.0411559 9.41934 0.235425 -1.17885 -1.52356 28.5785 2.90758 -0.0 0.0 -0.0 11.1709 10.8499 -22.412 1.10973 20.7011 -50.4607 1.55088 37.5311 -0.526952 48.2279 0.844889 5.92329 0.803303 7.63759 -2.18221 0.0 0.0 0.0 30.5855 -1.90211 -7.79515 -20.3524 0.291283 3.09325 7.26725 -23.9208 -1.22857 -20.1331 0.0 0.0 -0.0 0.0 -0.0 -3.99204 12.9994 -10.8362 -6.67825 -0.216797 -1.00141 29.3925 -1.76285 3.83421 -8.27145 0.0 0.0 0.0 0.0 0.0 
1134.69 720.279 -557.448 2.81872 -87.9554 5.97677 -0.584913 0.094918 -0.440863 -0.584813 0.122779 -0.433929 -0.585716 0.215304 -0.39625 -0.585904 0.150022 -0.42528 -12.47 2.36808 0.198198 -12.4809 4.37075 0.873406 -0.0 0.0 -0.0 2.89683 14.1202 6.37432 -20.8707 -14.2841 63.8451 0.447913 -12.5105 0.0490963 10.7153 0.252544 -1.3435 -1.09008 28.5416 5.2328 -0.0 0.0 -0.0 11.8106 12.6498 -23.8277 2.27389 18.939 -49.6724 1.78135 41.4224 -0.673561 47.3816 0.787802 5.83122 0.648081 6.60217 -1.57319 0.0 0.0 0.0 32.4264 -1.70536 -7.32708 -19.5046 0.301204 2.96356 1.61799 -16.016 -0.258887 -16.3862 0.0 0.0 -0.0 0.0 -0.0 -6.73602 11.2369 -11.0076 1.94959 0.0851791 0.287021 28.7981 -3.14994 3.76376 -12.2962 0.0 0.0 0.0 0.0 0.0 
